<?xml version="1.0" encoding="UTF-8" standalone="no"?>
<svg
   xmlns:dc="http://purl.org/dc/elements/1.1/"
   xmlns:cc="http://creativecommons.org/ns#"
   xmlns:rdf="http://www.w3.org/1999/02/22-rdf-syntax-ns#"
   xmlns:svg="http://www.w3.org/2000/svg"
   xmlns="http://www.w3.org/2000/svg"
   xmlns:xlink="http://www.w3.org/1999/xlink"
   id="Layer_1"
   enable-background="new 0 0 511.254 511.254"
   height="256"
   viewBox="0 0 782.85769 255.627"
   width="784"
   version="1.1">
  <metadata
     id="metadata39">
    <rdf:RDF>
      <cc:Work
         rdf:about="">
        <dc:format>image/svg+xml</dc:format>
        <dc:type
           rdf:resource="http://purl.org/dc/dcmitype/StillImage" />
        <dc:title></dc:title>
      </cc:Work>
    </rdf:RDF>
  </metadata>
  <defs
     id="defs37">
    <linearGradient
       id="linearGradient871">
      <stop
         style="stop-color:#fe7a47;stop-opacity:1"
         offset="0"
         id="stop867" />
      <stop
         style="stop-color:#ff3b5b;stop-opacity:1"
         offset="0.51785713"
         id="stop875" />
      <stop
         style="stop-color:#cd2f44;stop-opacity:1"
         offset="1"
         id="stop869" />
    </linearGradient>
    <rect
       x="252.66756"
       y="186.75616"
       width="438.07065"
       height="255.4287"
       id="rect872" />
    <rect
       x="361.88736"
       y="238.24319"
       width="986.10602"
       height="294.82657"
       id="rect866" />
    <linearGradient
       xlink:href="#linearGradient871"
       id="linearGradient873"
       x1="500"
       y1="150"
       x2="780"
       y2="150"
       gradientUnits="userSpaceOnUse" />
  </defs>
  <g
     id="g32"
     transform="matrix(0.49999902,0,0,0.50032099,0,-0.08205264)">
    <g
       id="g4">
      <path
         d="m 435.741,151.19 h -58.874 c -8.284,0 -15,-6.716 -15,-15 0,-8.284 6.716,-15 15,-15 h 58.874 c 25.096,0 45.513,-20.417 45.513,-45.513 0,-25.096 -20.417,-45.513 -45.513,-45.513 H 69.614 c -8.284,0 -15,-6.716 -15,-15 0,-8.284 6.716,-15 15,-15 h 366.128 c 41.638,0 75.513,33.875 75.513,75.513 0,41.638 -33.876,75.513 -75.514,75.513 z"
         fill="#fe7a47"
         id="path2" />
    </g>
    <g
       id="g8">
      <path
         d="m 387.792,205.096 h -16.555 c -8.284,0 -15,-6.716 -15,-15 0,-8.284 6.716,-15 15,-15 h 16.555 c 24.269,0 44.013,-19.743 44.013,-44.012 0,-25.923 -21.09,-47.013 -47.013,-47.013 H 232.908 c -8.284,0 -15,-6.716 -15,-15 0,-8.284 6.716,-15 15,-15 h 151.885 c 42.465,0 77.013,34.547 77.013,77.012 -10e-4,40.811 -33.203,74.013 -74.014,74.013 z"
         fill="#ff3b5b"
         id="path6" />
    </g>
    <path
       d="M 398.84,121.025 H 166.604 C 74.591,121.025 0,195.617 0,287.629 0,379.642 74.591,454.233 166.604,454.233 l 77.727,-1.56 c 0,0 -76.374,-13.157 -76.374,-80.307 0,-31.372 13.653,-51.926 28.202,-64.923 14.431,-12.891 33.224,-19.814 52.574,-19.814 82.902,0 150.108,-67.205 150.108,-150.107 v -16.497 z"
       fill="#fe9867"
       id="path10" />
    <g
       id="g18">
      <path
         d="m 100.399,369.571 c -27.569,8.271 -38.285,30.857 -42.321,44.462 29.154,25.054 60.298,48.314 144.547,43.88 l 41.706,-5.239 c 0,0 -64.783,-20.432 -75.752,-69.885 -13.479,-8.68 -39.953,-21.686 -68.18,-13.218 z"
         fill="#ffccb3"
         id="path12" />
      <path
         d="M 99.24,255.942 C 67.042,245.353 24.485,248.915 3.92,251.597 1.361,263.202 0,275.256 0,287.629 c 0,50.557 22.523,95.849 58.078,126.403 4.036,-13.605 14.752,-36.191 42.321,-44.462 28.227,-8.468 54.701,4.538 68.179,13.217 -0.399,-3.337 -0.622,-6.804 -0.622,-10.421 0,-20.16 5.642,-35.846 13.532,-47.937 -11.509,-17.767 -39.543,-54.442 -82.248,-68.487 z"
         fill="#fe9867"
         id="path14" />
      <path
         d="m 199.42,180.139 c -32.76,-32.76 -75.28,-42.843 -97.838,-45.946 -48.989,20.786 -85.965,64.351 -97.663,117.404 20.565,-2.682 63.122,-6.244 95.32,4.345 42.706,14.044 70.74,50.72 82.249,68.488 4.389,-6.725 9.47,-12.341 14.67,-16.986 9.983,-8.918 22.054,-14.974 34.952,-17.864 2.656,-22.252 4.076,-73.676 -31.69,-109.441 z"
         fill="#ff3b5b"
         id="path16" />
    </g>
    <path
       d="m 342.705,441.665 c 6.516,-7.746 9.909,-17.596 9.479,-28.014 -0.546,-13.258 -7.187,-25.089 -18.221,-32.461 -12.584,-8.408 -28.705,-9.223 -42.066,-2.129 L 198.2,428.777 c -5.629,2.986 -8.84,9.264 -7.764,15.748 0.773,4.655 3.852,8.607 7.988,10.878 l 92.196,50.624 c 6.177,3.392 12.978,5.063 19.755,5.063 8.808,0 17.574,-2.824 24.867,-8.366 l 0.948,-0.721 c 10.523,-7.997 16.951,-20.436 16.786,-33.652 -0.123,-10.031 -3.783,-19.392 -10.271,-26.686 z"
       fill="#ff3b5b"
       id="path20" />
    <path
       d="M 384.792,54.072 H 254.943 v 30 h 129.849 c 25.923,0 47.013,21.09 47.013,47.013 0,24.269 -19.744,44.012 -44.013,44.012 h -16.555 c -8.284,0 -15,6.716 -15,15 0,8.284 6.716,15 15,15 h 16.555 c 40.811,0 74.013,-33.202 74.013,-74.013 0,-42.466 -34.548,-77.012 -77.013,-77.012 z"
       fill="#cd2f44"
       id="path22" />
    <path
       d="M 511.254,71.751 C 509.204,31.931 476.164,0.165 435.843,0.165 H 255.045 v 30 h 180.798 c 25.096,0 45.513,20.417 45.513,45.513 0,25.096 -20.417,45.513 -45.513,45.513 h -58.874 c -8.284,0 -15,6.716 -15,15 0,8.284 6.716,15 15,15 h 58.874 c 40.321,0 73.361,-31.766 75.411,-71.586 z"
       fill="#ff3b5b"
       id="path24" />
    <path
       d="M 254.943,287.492 C 334.964,284.234 398.84,218.343 398.84,137.522 V 121.025 H 254.943 Z"
       fill="#fe7a47"
       id="path26" />
    <path
       d="m 352.184,413.651 c -0.546,-13.258 -7.187,-25.089 -18.221,-32.461 -12.584,-8.408 -28.705,-9.223 -42.066,-2.129 l -36.954,19.608 v 87.768 l 35.678,19.59 c 6.177,3.392 12.978,5.063 19.755,5.063 8.808,0 17.574,-2.824 24.867,-8.366 l 0.948,-0.721 c 10.523,-7.997 16.951,-20.436 16.786,-33.652 -0.125,-10.032 -3.785,-19.392 -10.273,-26.686 6.516,-7.746 9.91,-17.596 9.48,-28.014 z"
       fill="#cd2f44"
       id="path28" />
    <circle
       cx="293.75299"
       cy="191.22"
       fill="#00485b"
       r="18.246"
       id="circle30" />
  </g>
  <g
     aria-label="Shrimp"
     transform="matrix(1.0194969,0,0,1.0269266,-153.02192,-88.210222)"
     id="text864"
     style="font-style:normal;font-weight:normal;font-size:39.9417px;line-height:0;font-family:sans-serif;text-align:start;letter-spacing:-2.55627px;white-space:pre;shape-inside:url(#rect866);fill:#000000;fill-opacity:1;stroke:none">
    <path
       d="m 449.56693,164.87907 h -6.71022 l -7.75404,6.85934 c -8.64872,-5.66641 -16.40276,-8.05227 -26.69176,-8.05227 -23.11298,0 -38.77016,13.42044 -38.77016,33.25287 0,18.19215 13.42044,31.16524 36.83165,35.48961 l 9.24519,1.78939 c 9.69254,1.78939 12.52575,2.53497 16.10453,4.47348 4.17525,2.23674 6.56111,6.5611 6.56111,11.92928 0,10.58723 -8.49962,17.44657 -21.47271,17.44657 -16.85011,0 -31.61259,-13.27132 -39.81397,-35.63872 h -7.60492 l 0.8947,42.19982 h 6.71022 l 9.24519,-8.79784 c 9.09608,6.85934 18.49039,9.99077 30.56878,9.99077 23.2621,0 39.36663,-14.46425 39.36663,-35.48961 0,-18.93773 -11.1837,-29.52496 -36.98077,-35.19137 l -7.15757,-1.64028 c -11.48193,-2.23674 -11.48193,-2.23674 -15.20983,-3.57878 -6.85934,-2.38586 -10.13989,-6.71022 -10.13989,-12.97309 0,-9.09608 8.3505,-15.50807 20.13066,-15.50807 15.50806,0 27.73558,10.73636 36.68254,32.05994 h 7.90314 z"
       style="font-style:normal;font-variant:normal;font-weight:bold;font-stretch:normal;font-size:149.116px;font-family:C059;-inkscape-font-specification:'C059, Bold';font-variant-ligatures:normal;font-variant-caps:normal;font-variant-numeric:normal;font-variant-east-asian:normal;text-align:start;text-anchor:start"
       id="path853" />
    <path
       d="m 495.9204,163.68614 -35.78784,2.23674 v 7.60492 h 2.8332 c 9.2452,0 9.69254,0.59646 9.54343,14.46425 v 64.11988 8.05226 c -0.14912,2.08763 -0.29823,2.98232 -0.8947,3.87702 -1.04381,1.34204 -3.87701,1.93851 -10.43812,1.93851 h -0.59646 v 7.60491 h 45.48038 v -7.60491 c -8.3505,0 -10.28901,-1.19293 -10.13989,-6.41199 v -7.4558 -14.46425 c 0,-6.71022 0.59646,-10.58724 2.23674,-14.16602 2.38586,-5.36818 7.60492,-8.79785 13.12221,-8.79785 6.85933,0 10.58723,5.06995 10.58723,14.61337 v 22.81475 4.17525 3.87701 c -0.14911,2.08763 -0.29823,2.98232 -0.89469,3.87702 -1.49116,1.49116 -4.32437,2.08762 -9.39431,1.93851 v 7.60491 h 45.48038 v -7.60491 h -0.59647 c -9.84165,-0.14912 -11.1837,-0.8947 -11.1837,-6.41199 v -7.4558 -24.90237 c 0,-9.2452 -1.64027,-14.9116 -5.6664,-19.23597 -4.02614,-4.62259 -10.58724,-7.15756 -18.34127,-7.15756 -11.33282,0 -19.08685,4.17524 -25.34972,13.71867 z"
       style="font-style:normal;font-variant:normal;font-weight:bold;font-stretch:normal;font-size:149.116px;font-family:C059;-inkscape-font-specification:'C059, Bold';font-variant-ligatures:normal;font-variant-caps:normal;font-variant-numeric:normal;font-variant-east-asian:normal;text-align:start;text-anchor:start"
       id="path855" />
    <path
       d="m 593.27176,203.05277 -33.25286,1.04381 v 7.60491 h 2.23674 c 9.24519,0.14912 9.69254,0.74558 9.54342,14.46425 v 25.94619 8.05226 c -0.14912,2.08763 -0.29823,2.98232 -0.8947,3.87702 -1.04381,1.34204 -3.87701,1.93851 -10.289,1.93851 h -0.59646 v 7.60491 h 49.80474 v -7.60491 h -3.28055 c -9.99077,-0.14912 -11.1837,-0.8947 -11.1837,-6.41199 v -7.4558 -2.98232 c 0.59646,-22.06917 6.85933,-35.63872 17.59569,-38.47193 -1.93851,2.68409 -2.53498,4.32437 -2.53498,7.00845 0,6.41199 4.77172,11.03459 11.1837,11.03459 7.30669,0 12.82398,-5.5173 12.82398,-12.82398 0,-8.64873 -6.85934,-15.06071 -16.40276,-15.06071 -11.48193,0 -19.5342,6.5611 -24.75326,20.27977 z"
       style="font-style:normal;font-variant:normal;font-weight:bold;font-stretch:normal;font-size:149.116px;font-family:C059;-inkscape-font-specification:'C059, Bold';font-variant-ligatures:normal;font-variant-caps:normal;font-variant-numeric:normal;font-variant-east-asian:normal;text-align:start;text-anchor:start"
       id="path857" />
    <path
       id="path859"
       style="font-style:normal;font-variant:normal;font-weight:bold;font-stretch:normal;font-size:149.116px;font-family:C059;-inkscape-font-specification:'C059, Bold';font-variant-ligatures:normal;font-variant-caps:normal;font-variant-numeric:normal;font-variant-east-asian:normal;text-align:start;text-anchor:start;fill:url(#linearGradient873);fill-opacity:1;stroke-width:1.0247"
       d="m 522.0293,80 c -7.46001,0 -13.54883,6.135069 -13.54883,13.496094 0,7.514376 6.09057,13.648436 13.24609,13.648436 7.76451,0 13.70117,-5.9807 13.70117,-13.648436 C 535.42773,86.135069 529.33706,80 522.0293,80 Z m 88.1289,38.18555 c -10.20043,0 -18.26957,4.75467 -24.35937,14.41601 v -12.11523 l -34.71094,1.07226 v 7.82227 h 2.43555 c 9.4392,0.15336 9.89638,0.76549 9.74414,14.41406 v 27.14453 7.05469 1.22656 c -0.15225,2.14697 -0.30508,3.0662 -0.91406,3.98633 -1.06572,1.38019 -3.95932,1.99414 -10.50586,1.99414 h -0.75977 v 7.82031 H 596 v -7.82031 c -9.13471,-0.30672 -9.13457,-0.30645 -8.83008,-14.26172 v -20.54883 c 0,-11.04153 5.32779,-17.94335 13.85352,-17.94335 5.93755,0 8.37304,3.98696 8.37304,14.26171 v 24.23047 c 0.30449,13.95527 0.15249,13.955 -8.67773,14.26172 v 7.82031 h 41.41016 v -7.82031 c -8.98246,-0.30672 -9.13458,-0.30645 -8.83008,-14.26172 v -20.54883 c 0,-10.88817 5.48198,-17.94335 13.85547,-17.94335 5.78531,0 8.37304,4.14044 8.37304,13.64843 v 24.84375 4.29297 4.14063 c 0,1.99361 -0.30508,2.7605 -0.91406,3.83398 -1.21796,1.53355 -2.89192,1.99414 -7.91601,1.99414 v 7.82031 h 44.75976 v -7.82031 h -0.60937 c -10.04818,-0.15336 -11.41797,-0.91963 -11.41797,-6.59375 v -7.66797 -30.51757 c 0,-12.57508 -10.35243,-22.23633 -23.75,-22.23633 -9.89594,0 -16.74692,3.98608 -24.05469,13.80078 -3.34939,-8.74122 -11.26638,-13.80078 -21.4668,-13.80078 z m 140.19532,0 c -10.50491,0 -17.05132,3.37402 -23.90235,12.11523 v -9.81445 l -35.92969,1.07226 v 7.82227 h 2.28321 c 9.43919,0.15336 9.89639,0.76638 9.74414,14.875 v 57.66016 7.20898 1.07227 c -0.15224,2.14697 -0.30509,3.06814 -0.91406,3.98828 -0.91348,1.38018 -3.95737,1.99313 -10.50391,2.14648 h -0.60938 V 224 h 49.17579 v -7.66797 h -1.67579 c -10.35267,-0.30671 -11.57031,-1.07393 -11.57031,-6.74805 v -7.66796 -16.56055 c 6.08981,6.74761 12.94117,9.9668 21.61914,9.9668 20.55309,0 35.92969,-17.32784 35.92969,-40.48438 0,-21.16294 -14.15911,-36.65234 -33.64648,-36.65234 z m -215.99219,2.30078 -35.77735,1.07226 v 7.82227 h 2.13282 c 9.28695,0.15336 9.74218,0.76549 9.74218,14.41406 v 27.14453 7.05469 1.22656 c -0.15224,2.14697 -0.30312,3.0662 -0.9121,3.98633 -0.91347,1.38019 -3.95922,1.99414 -10.35352,1.99414 h -0.60938 v 7.82031 h 47.65235 v -7.82031 h -0.91211 c -9.59145,-0.15336 -10.96289,-1.07299 -10.96289,-6.59375 v -7.66797 z m 209.14062,9.20117 c 9.28696,0 14.16016,9.50666 14.16016,27.75586 0,17.32907 -5.63327,27.45117 -15.37695,27.45117 -10.20044,0 -15.98633,-9.66116 -15.98633,-26.99023 0,-18.24921 6.08924,-28.2168 17.20312,-28.2168 z"
       transform="matrix(0.97944679,0,0,0.9723606,150.09552,85.8973)" />
  </g>
</svg>
